Coordinates
version=1
nRows=13
nColumns=36
inDegrees=yes

Units are S.I. units (second, meters, Newtons, ...)
If the header above contains a line with 'inDegrees', this indicates whether rotational values are in degrees (yes) or radians (no).

endheader
time	pelvis_tilt	pelvis_list	pelvis_rotation	pelvis_tx	pelvis_ty	pelvis_tz	hip_flexion_r	hip_adduction_r	hip_rotation_r	knee_angle_r	knee_angle_r_beta	ankle_angle_r	subtalar_angle_r	mtp_angle_r	hip_flexion_l	hip_adduction_l	hip_rotation_l	knee_angle_l	knee_angle_l_beta	ankle_angle_l	subtalar_angle_l	mtp_angle_l	lumbar_extension	lumbar_bending	lumbar_rotation	arm_flex_r	arm_add_r	arm_rot_r	elbow_flex_r	pro_sup_r	arm_flex_l	arm_add_l	arm_rot_l	elbow_flex_l	pro_sup_l
      0.00000000	      4.47647530	     -0.28451770	    -10.69079504	      0.55231237	      0.94523764	      0.72606896	     23.96383552	      0.81638915	      0.31766781	     59.21760327	      1.03354215	      5.71135636	    -13.81877227	     -7.26969767	     -3.43962462	      2.55549662	     -1.33108363	     16.07626826	      0.28058381	     13.83252772	    -10.36358679	     -7.26969767	    -12.94771802	     -3.69684536	      2.55341983	      0.32288566	     -5.98956894	     -9.58710051	     23.16347270	     93.28909511	     13.22722361	    -11.79219087	     10.72680260	     19.69093115	     89.57511928
      0.01666670	      5.08378761	     -1.00234247	    -10.58205797	      0.54941922	      0.94639969	      0.72538500	     24.10299341	      1.14349670	     -0.56650708	     54.58784348	      0.95273760	      7.41442730	    -12.76026550	     -7.33416256	     -5.29761357	      2.14505673	     -0.87289411	     15.63201261	      0.27283009	     15.28678904	    -10.38448926	     -7.33416256	    -14.45459356	     -3.28070990	      2.45285814	      0.39250723	     -5.67486229	    -11.44428145	     23.26866593	     95.53115281	     14.54202056	    -11.46886753	     11.80996368	     19.36849939	     91.86291613
      0.03333330	      5.41507007	     -1.04906636	    -10.55759223	      0.54701831	      0.94781993	      0.72715231	     24.32329330	      1.52383982	     -0.40611400	     49.76531281	      0.86856856	      8.85744956	    -11.60195732	     -7.34771554	     -6.93488573	      2.28209294	     -0.00192390	     14.82991748	      0.25883089	     16.45584104	     -9.79010808	     -7.34771554	    -15.11504631	     -3.47851054	      2.26171308	      0.49491957	     -5.49290576	    -10.73804567	     22.66579927	     95.41291052	     15.77463432	    -11.74208269	     13.09354687	     18.71435300	     92.31486177
      0.05000000	      5.32160597	     -1.21168356	    -10.57754096	      0.54613987	      0.94592047	      0.72740328	     25.09773042	      1.83769949	     -0.63031196	     45.39751987	      0.79233619	      9.33683348	    -11.16189015	     -7.35237108	     -8.14905634	      2.07904810	     -0.21569829	     14.35730140	      0.25058218	     17.79659086	     -8.77483204	     -7.35237108	    -15.13467446	     -3.37456205	      2.01926806	      0.54326218	     -5.46048111	    -10.20058409	     21.96727055	     95.60583996	     16.60799537	    -12.02404509	     14.27837364	     18.24031129	     93.27287491
      0.06666670	      5.07557299	     -1.15795801	    -10.64106814	      0.54330260	      0.94206189	      0.72646199	     26.27338081	      1.89064286	     -0.81720634	     41.69612373	      0.72773464	      8.98825445	    -11.13550352	     -7.36142286	     -9.01624948	      2.11539664	     -0.87124841	     14.32581822	      0.25003270	     19.31503216	     -7.80433389	     -7.36142286	    -15.02657055	     -3.45432120	      1.52739035	      0.72368031	     -5.42704202	     -9.39560486	     21.29732675	     95.34270550	     17.26527792	    -12.42866165	     15.20357893	     18.29744458	     94.09361285
      0.08333330	      4.35027144	     -0.97796947	    -10.38367282	      0.53801362	      0.93787538	      0.72523146	     28.12693040	      1.67607026	     -1.32067320	     38.59883679	      0.67367679	      8.55864436	    -11.36742442	     -7.35991523	     -9.25215449	      2.14452293	     -1.48683240	     14.37753672	      0.25093535	     20.75182106	     -6.58067954	     -7.35991523	    -14.60426814	     -3.51665190	      0.87071972	      0.89155142	     -5.30369566	     -9.25304345	     20.70328952	     94.82502001	     17.97065170	    -12.77222924	     15.89353205	     18.96519534	     94.28244397
      0.10000000	      3.19085858	     -0.74930539	     -9.94235390	      0.53385218	      0.93307010	      0.72524156	     30.43841066	      1.34651532	     -2.12969719	     35.88172517	      0.62625425	      8.28472720	    -11.41623122	     -7.36128006	     -8.87376491	      2.08880066	     -2.35791256	     14.50858558	      0.25322259	     22.03497871	     -5.04309394	     -7.36128006	    -13.70126128	     -3.52276177	     -0.09351083	      0.93729621	     -5.17684919	     -8.93170422	     20.73182022	     94.25137293	     18.45041296	    -13.22343140	     16.61170826	     19.92489163	     94.50084763
      0.11666670	      1.81872381	     -0.54105531	     -9.34589970	      0.53289060	      0.92892431	      0.72608204	     32.77780181	      0.96143764	     -3.18192401	     33.30276919	      0.58124297	      8.15563414	    -11.23776200	     -7.36327441	     -8.23486357	      1.97335155	     -3.12936746	     14.61295431	      0.25504417	     22.88841978	     -3.53198189	     -7.36327441	    -12.51064800	     -3.45448978	     -1.15089904	      1.07505006	     -5.10747788	     -8.40932356	     20.59530801	     94.55638510	     18.68962678	    -13.64666050	     16.90666464	     21.23597849	     95.57191209
      0.13333330	      0.49665162	     -0.47103847	     -8.67738304	      0.53352773	      0.92604542	      0.72627092	     34.67086009	      0.66109452	     -4.32352572	     30.62181990	      0.53445158	      8.18062451	    -10.64338095	     -7.36973537	     -7.73201512	      1.75978593	     -3.84595608	     14.61163811	      0.25502119	     23.39220846	     -2.01128723	     -7.36973537	    -11.25849156	     -3.20793314	     -2.28738330	      1.24300705	     -5.14723614	     -7.62453357	     20.26239660	     94.85695321	     18.66182400	    -13.96811789	     16.81827105	     22.38276959	     96.42963044
      0.15000000	     -0.58006619	     -0.55696527	     -8.02903534	      0.53439795	      0.92409499	      0.72592601	     35.86979806	      0.57221301	     -5.21169250	     27.85872546	      0.48622648	      8.16224833	     -9.81146573	     -7.37225029	     -7.68005543	      1.53508045	     -4.17661534	     14.31225562	      0.24979598	     23.28540936	     -1.19242566	     -7.37225029	    -10.26399043	     -2.81493374	     -2.90423078	      1.07784980	     -5.27578168	     -7.65616475	     20.26726644	     94.94563300	     18.92497964	    -13.86921150	     16.85330054	     22.91624917	     96.59710178
      0.16666670	     -1.57585201	     -0.72268925	     -7.43855580	      0.53675484	      0.92152880	      0.72637057	     36.60005487	      0.69592565	     -5.72551307	     25.34352508	      0.44232796	      8.26472421	     -8.70735222	     -7.37448289	     -7.83831732	      1.26951782	     -4.55720347	     13.93980250	      0.24329545	     23.08893497	     -0.27679928	     -7.37448289	     -9.13591837	     -2.36178375	     -3.45162087	      0.86125019	     -5.45990306	     -7.63104464	     20.04937885	     95.02934461	     18.84408145	    -13.78978200	     16.91414694	     23.29950662	     96.72225423
      0.18333330	     -2.33841613	     -1.08761838	     -6.89902577	      0.54060647	      0.91850763	      0.72744065	     36.72004437	      1.05864658	     -6.11372579	     23.40126141	      0.40842906	      8.75779062	     -6.90962520	     -7.38065828	     -8.24773388	      0.79844149	     -5.20088366	     13.69512899	      0.23902509	     23.25285262	      1.42587056	     -7.38065828	     -8.14107544	     -1.68668058	     -4.22393189	      1.11782777	     -5.78733570	     -7.20955033	     18.92633052	     95.72822270	     18.31517643	    -13.81999227	     16.66615217	     23.67470716	     97.33296130
      0.20000000	     -2.89735682	     -1.48264719	     -6.47922539	      0.54431661	      0.91617207	      0.72834576	     36.32660156	      1.64144425	     -5.87830448	     22.10079610	      0.38573166	      8.42535779	     -6.36609861	     -7.38232652	     -8.83354645	      0.40271503	     -5.37485887	     13.51576482	      0.23589460	     22.85364525	      1.77781436	     -7.38232652	     -7.24632538	     -1.02116262	     -4.33545058	      0.91111696	     -6.16610924	     -7.11352148	     18.54806601	     95.94684251	     17.89180985	    -13.46495863	     16.55064687	     23.72024040	     97.49824489
